<svg xmlns="http://www.w3.org/2000/svg" width="73" height="64" viewBox="0 0 73 64">
  <defs>
    <style>
      .cls-1 {
        fill-rule: evenodd;
      }
    </style>
  </defs>
  <path class="cls-1" d="M660.688,391.13V376.868a10.905,10.905,0,0,1,.054-1.1H647v16.456h13.742A10.935,10.935,0,0,1,660.688,391.13Zm3.011,8.411H647v6.783A9.667,9.667,0,0,0,656.654,416h11.333V403A13.37,13.37,0,0,1,663.7,399.541ZM667.987,365V352H656.654A9.667,9.667,0,0,0,647,361.673v6.784h16.7A13.359,13.359,0,0,1,667.987,365Zm38.325,11.867V391.13a10.935,10.935,0,0,1-.054,1.1H720V375.771H706.258A10.905,10.905,0,0,1,706.312,376.868ZM710.346,352H675.287v10.605l-0.912.365s-4.864,7.314-5.944,11.648a5.991,5.991,0,0,0-.444,2.249V391.13a6.015,6.015,0,0,0,6,6.015h19.016a6.015,6.015,0,0,0,6-6.015V378.774s0.912-10.317,4.562-10.317H720v-6.784A9.667,9.667,0,0,0,710.346,352Zm-35.059,64H690.8V404.459H675.287V416ZM698.1,403.435V416h12.246A9.667,9.667,0,0,0,720,406.324v-6.783H703.3A13.258,13.258,0,0,1,698.1,403.435Z" transform="translate(-647 -352)"/>
</svg>
