<svg xmlns="http://www.w3.org/2000/svg" width="218" height="28.031" viewBox="0 0 218 28.031">
  <defs>
    <style>
      .cls-1 {
        fill-rule: evenodd;
      }
    </style>
  </defs>
  <path class="cls-1" d="M595.5,382.168v-0.247q0-4.344-1.852-6.638a6.457,6.457,0,0,0-5.34-2.3,7.184,7.184,0,0,0-3.418.883,9.159,9.159,0,0,0-2.92,2.507,15.343,15.343,0,0,0-2.412,5.041,22.434,22.434,0,0,0-.9,6.347,8.354,8.354,0,0,0,1.825,5.712,6.307,6.307,0,0,0,4.994,2.075,7.288,7.288,0,0,0,4.29-1.4,13.7,13.7,0,0,0,3.685-4.255l2.332,0.724a13.069,13.069,0,0,1-4.406,5.429,11.879,11.879,0,0,1-14.367-1.174A11.1,11.1,0,0,1,574,386.724a16.823,16.823,0,0,1,1.069-5.862,18.973,18.973,0,0,1,3.079-5.385,13.87,13.87,0,0,1,4.549-3.646,11.985,11.985,0,0,1,5.4-1.3,10.668,10.668,0,0,1,2.074.2,17.8,17.8,0,0,1,2.626.8,11.48,11.48,0,0,1,1.486.7,3.387,3.387,0,0,0,1.219.485,1.061,1.061,0,0,0,.881-0.512,4.174,4.174,0,0,0,.579-1.571h2.3l-1.46,11.529h-2.3Zm12.782,0.036a15.867,15.867,0,0,1,2.866-4.044,4.19,4.19,0,0,1,2.866-1.271,2.551,2.551,0,0,1,1.967.777,2.993,2.993,0,0,1,.721,2.119,2.542,2.542,0,0,1-.667,1.818,2.554,2.554,0,0,1-3.187.274,1.4,1.4,0,0,1-.543-1.157,0.8,0.8,0,0,1,.017-0.1,0.677,0.677,0,0,0,.019-0.15,0.884,0.884,0,0,0-.054-0.291,0.227,0.227,0,0,0-.178-0.079q-1.566,0-3.765,4.8a63.7,63.7,0,0,0-3.89,12.342H600.8l2.742-8.864q1.014-3.283,1.4-4.811a10.366,10.366,0,0,0,.384-2.2,1.554,1.554,0,0,0-.223-0.857,0.643,0.643,0,0,0-.543-0.344,2.626,2.626,0,0,0-1.744.786,13.064,13.064,0,0,0-2.048,2.657h-1.994a16.146,16.146,0,0,1,3.374-4.652A5.425,5.425,0,0,1,605.7,377.3a2.575,2.575,0,0,1,2.055.83,3.522,3.522,0,0,1,.721,2.384,4.733,4.733,0,0,1-.044.582Q608.388,381.445,608.282,382.2Zm25.778,8.863a14.659,14.659,0,0,1-4.121,5.067,8.517,8.517,0,0,1-5.136,1.695,7.126,7.126,0,0,1-5.43-2.163,8.038,8.038,0,0,1-2.047-5.764,13.36,13.36,0,0,1,1.148-5.518,13.7,13.7,0,0,1,3.338-4.564,11.915,11.915,0,0,1,3.436-2.2,9.64,9.64,0,0,1,3.72-.768,5.975,5.975,0,0,1,3.9,1.192,3.9,3.9,0,0,1,1.46,3.187q0,3.018-3.373,4.917t-9.533,2.3a13.939,13.939,0,0,0-.312,1.4,6.749,6.749,0,0,0-.1,1.068,4.9,4.9,0,0,0,1.157,3.416,3.947,3.947,0,0,0,3.08,1.28,6.144,6.144,0,0,0,3.543-1.183A12.043,12.043,0,0,0,631.959,391Zm-12.319-4.379a14.871,14.871,0,0,0,6.569-1.659,4.086,4.086,0,0,0,2.368-3.549,2.626,2.626,0,0,0-.668-1.9,2.385,2.385,0,0,0-1.807-.7,4.791,4.791,0,0,0-3.667,2.039A16.225,16.225,0,0,0,621.741,386.688Zm27.966,7.839a11.86,11.86,0,0,1-3.187,2.587,7,7,0,0,1-3.31.856,4.963,4.963,0,0,1-4.121-2.074,8.7,8.7,0,0,1-1.594-5.447,15,15,0,0,1,.855-4.962,15.283,15.283,0,0,1,2.421-4.449,12.063,12.063,0,0,1,3.489-3.045,7.854,7.854,0,0,1,3.881-1.069,4.964,4.964,0,0,1,3.141.989,7.174,7.174,0,0,1,2.111,3.09l1.637-5.6a7.464,7.464,0,0,0,.187-0.83,4.341,4.341,0,0,0,.062-0.688,1.074,1.074,0,0,0-.65-1.006,4.437,4.437,0,0,0-1.966-.336H651.31l0.551-1.978q2.351-.07,4.317-0.194t3.694-.317l-6.337,22.087-0.018.053a7.279,7.279,0,0,0-.3,1.571,1.435,1.435,0,0,0,.295.962,0.982,0.982,0,0,0,.791.345,2.472,2.472,0,0,0,1.673-.91,11.851,11.851,0,0,0,1.835-2.674h2.029a14.859,14.859,0,0,1-3.16,4.776,5.311,5.311,0,0,1-3.659,1.6,2.961,2.961,0,0,1-2.2-.813A4.648,4.648,0,0,1,649.707,394.527Zm-0.979-15.148a4.765,4.765,0,0,0-2.7.882,9,9,0,0,0-2.412,2.56,14.759,14.759,0,0,0-1.842,4.017,15.31,15.31,0,0,0-.668,4.37,4.968,4.968,0,0,0,.925,3.187,3.065,3.065,0,0,0,2.528,1.157,4.564,4.564,0,0,0,2.413-.715,8.243,8.243,0,0,0,2.216-2.11,16.466,16.466,0,0,0,3.026-8.97,4.985,4.985,0,0,0-.943-3.2A3.087,3.087,0,0,0,648.728,379.379Zm24.71,12.112a15.127,15.127,0,0,1-3.16,4.784,5.281,5.281,0,0,1-3.659,1.59,2.954,2.954,0,0,1-2.278-.883,3.473,3.473,0,0,1-.819-2.455,11.309,11.309,0,0,1,.356-2.515,26.477,26.477,0,0,1,1.033-3.293q0.426-1.166,1.174-3.073a20.1,20.1,0,0,0,1.371-4.307,1.357,1.357,0,0,0-.223-0.848,0.819,0.819,0,0,0-.685-0.282,2.5,2.5,0,0,0-1.673.794,13.075,13.075,0,0,0-1.976,2.613h-2.03a16.114,16.114,0,0,1,3.383-4.67,5.449,5.449,0,0,1,3.578-1.651,2.739,2.739,0,0,1,2.171.892,3.656,3.656,0,0,1,.784,2.5,9.549,9.549,0,0,1-.383,2.339q-0.382,1.44-1.735,5.183-1,2.718-1.335,3.875a6.82,6.82,0,0,0-.338,1.686,1.357,1.357,0,0,0,.275.918,0.97,0.97,0,0,0,.774.318,2.306,2.306,0,0,0,1.594-.865,12.934,12.934,0,0,0,1.807-2.648h1.994Zm-6.054-19.157a2.306,2.306,0,0,1,.687-1.695,2.28,2.28,0,0,1,1.682-.689,2.362,2.362,0,0,1,1.717.689,2.36,2.36,0,0,1-.009,3.372,2.338,2.338,0,0,1-1.708.707,2.277,2.277,0,0,1-1.674-.7A2.3,2.3,0,0,1,667.384,372.334Zm13.05,7.08h-3.793l0.552-1.907h3.792l1.976-7.062h3.489l-1.958,7.062h3.489l-0.427,1.907h-3.577l-3.579,12.73a6.9,6.9,0,0,0-.214.962,6.468,6.468,0,0,0-.071.927,1.277,1.277,0,0,0,.267.9,1.129,1.129,0,0,0,.855.283,3.193,3.193,0,0,0,2.118-1.077A13.226,13.226,0,0,0,685.614,391h2.19a16.239,16.239,0,0,1-3.641,5.147,6.278,6.278,0,0,1-4.192,1.722,3.24,3.24,0,0,1-2.466-.945,3.624,3.624,0,0,1-.9-2.6,17.539,17.539,0,0,1,.748-3.832l0.071-.229Zm42.814,2.754v-0.247q0-4.344-1.852-6.638a6.459,6.459,0,0,0-5.34-2.3,7.178,7.178,0,0,0-3.418.883,9.148,9.148,0,0,0-2.92,2.507,15.343,15.343,0,0,0-2.413,5.041,22.433,22.433,0,0,0-.9,6.347,8.354,8.354,0,0,0,1.824,5.712,6.309,6.309,0,0,0,4.994,2.075,7.294,7.294,0,0,0,4.291-1.4A13.722,13.722,0,0,0,721.2,389.9l2.331,0.724a13.075,13.075,0,0,1-4.405,5.429,11.879,11.879,0,0,1-14.367-1.174,11.1,11.1,0,0,1-3.018-8.157,16.844,16.844,0,0,1,1.068-5.862,19,19,0,0,1,3.08-5.385,13.88,13.88,0,0,1,4.549-3.646,11.992,11.992,0,0,1,5.4-1.3,10.668,10.668,0,0,1,2.074.2,17.731,17.731,0,0,1,2.626.8,11.419,11.419,0,0,1,1.486.7,3.389,3.389,0,0,0,1.22.485,1.062,1.062,0,0,0,.881-0.512,4.208,4.208,0,0,0,.579-1.571H727l-1.46,11.529h-2.3ZM740.3,394.527a11.876,11.876,0,0,1-3.187,2.587,7.008,7.008,0,0,1-3.311.856,4.964,4.964,0,0,1-4.121-2.074,8.7,8.7,0,0,1-1.593-5.447,15,15,0,0,1,.854-4.962,15.283,15.283,0,0,1,2.421-4.449,12.076,12.076,0,0,1,3.489-3.045,7.854,7.854,0,0,1,3.881-1.069,4.967,4.967,0,0,1,3.142.989,7.173,7.173,0,0,1,2.11,3.09l0.978-3.761h3.472l-4.166,14.9-0.017.053a7.279,7.279,0,0,0-.3,1.571,1.434,1.434,0,0,0,.276.927,0.9,0.9,0,0,0,.738.345,2.388,2.388,0,0,0,1.63-.9,12.429,12.429,0,0,0,1.807-2.648h2.029a14.843,14.843,0,0,1-3.16,4.776,5.311,5.311,0,0,1-3.658,1.6,2.981,2.981,0,0,1-2.208-.8A4.651,4.651,0,0,1,740.3,394.527Zm-0.909-15.148a4.77,4.77,0,0,0-2.7.882,9,9,0,0,0-2.412,2.56,15.493,15.493,0,0,0-1.86,4.035,14.951,14.951,0,0,0-.685,4.352,4.968,4.968,0,0,0,.925,3.187,3.065,3.065,0,0,0,2.529,1.157,4.563,4.563,0,0,0,2.412-.715,8.258,8.258,0,0,0,2.216-2.11,16.487,16.487,0,0,0,3.026-8.97,5.019,5.019,0,0,0-.934-3.2A3.044,3.044,0,0,0,739.394,379.379Zm20.847,2.825a15.867,15.867,0,0,1,2.866-4.044,4.192,4.192,0,0,1,2.867-1.271,2.55,2.55,0,0,1,1.966.777,2.993,2.993,0,0,1,.722,2.119,2.543,2.543,0,0,1-.668,1.818,2.554,2.554,0,0,1-3.187.274,1.4,1.4,0,0,1-.543-1.157,0.7,0.7,0,0,1,.018-0.1,0.738,0.738,0,0,0,.018-0.15,0.892,0.892,0,0,0-.053-0.291,0.229,0.229,0,0,0-.179-0.079q-1.566,0-3.765,4.8a63.7,63.7,0,0,0-3.89,12.342h-3.649l2.742-8.864q1.014-3.283,1.4-4.811a10.413,10.413,0,0,0,.383-2.2,1.554,1.554,0,0,0-.222-0.857,0.645,0.645,0,0,0-.543-0.344,2.626,2.626,0,0,0-1.745.786,13.064,13.064,0,0,0-2.048,2.657h-1.994a16.165,16.165,0,0,1,3.374-4.652,5.427,5.427,0,0,1,3.552-1.669,2.575,2.575,0,0,1,2.055.83,3.522,3.522,0,0,1,.722,2.384,4.763,4.763,0,0,1-.045.582Q760.349,381.445,760.241,382.2Zm21.594,12.323a11.876,11.876,0,0,1-3.187,2.587,7,7,0,0,1-3.311.856,4.965,4.965,0,0,1-4.121-2.074,8.7,8.7,0,0,1-1.593-5.447,15,15,0,0,1,.854-4.962,15.331,15.331,0,0,1,2.421-4.449,12.066,12.066,0,0,1,3.49-3.045,7.849,7.849,0,0,1,3.881-1.069,4.966,4.966,0,0,1,3.141.989,7.173,7.173,0,0,1,2.11,3.09l1.637-5.6a7.246,7.246,0,0,0,.187-0.83,4.352,4.352,0,0,0,.063-0.688,1.076,1.076,0,0,0-.65-1.006,4.444,4.444,0,0,0-1.967-.336h-1.353l0.552-1.978q2.349-.07,4.316-0.194t3.694-.317l-6.337,22.087-0.017.053a7.216,7.216,0,0,0-.3,1.571,1.435,1.435,0,0,0,.294.962,0.984,0.984,0,0,0,.791.345,2.474,2.474,0,0,0,1.674-.91,11.885,11.885,0,0,0,1.834-2.674h2.029a14.843,14.843,0,0,1-3.16,4.776,5.311,5.311,0,0,1-3.658,1.6,2.965,2.965,0,0,1-2.2-.813A4.648,4.648,0,0,1,781.835,394.527Zm-0.98-15.148a4.767,4.767,0,0,0-2.7.882,9,9,0,0,0-2.412,2.56,14.819,14.819,0,0,0-1.842,4.017,15.343,15.343,0,0,0-.667,4.37,4.974,4.974,0,0,0,.924,3.187,3.067,3.067,0,0,0,2.529,1.157,4.563,4.563,0,0,0,2.412-.715,8.229,8.229,0,0,0,2.216-2.11,16.444,16.444,0,0,0,3.026-8.97,4.979,4.979,0,0,0-.943-3.2A3.086,3.086,0,0,0,780.855,379.379Z" transform="translate(-574 -369.938)"/>
</svg>
