<svg xmlns="http://www.w3.org/2000/svg" width="166.031" height="54.719" viewBox="0 0 166.031 54.719">
  <defs>
    <style>
      .cls-1 {
        fill: #fff;
        fill-rule: evenodd;
      }
    </style>
  </defs>
  <path class="cls-1" d="M799.962,342.766c-2.931,0-5.65,0-8.369,0-6.9,0-7.579.466-10.221,6.795q-6.682,16.011-13.381,32.016c-1.891,4.537-3.736,9.092-5.768,14.043,3.552,0,6.464-.322,9.274.079,3.826,0.547,5.323-1.238,6.3-4.6,0.378-1.308,1.879-3.167,2.964-3.236,5.318-.335,10.668-0.152,16.1-0.152,0.775,2.78,1.467,5.26,2.138,7.665h12.029C807.321,377.769,803.677,360.437,799.962,342.766Zm-17.125,34.363c2.46-6.834,4.794-13.315,7.127-19.8l0.832,0.148c1.341,6.339,2.683,12.678,4.158,19.649H782.837Zm-85.114-34.244a5.1,5.1,0,0,0-3.591,2.468c-2.675,6.142-4.994,12.44-7.474,18.669-1.86,4.67-3.776,9.316-5.668,13.972a3.557,3.557,0,0,1-1.359-2.273c-1.742-9.039-3.508-18.073-5.184-27.124-0.6-3.213-2.187-5.617-5.5-5.706-7.923-.211-15.855-0.068-23.783-0.068-0.059.305-.117,0.61-0.176,0.915,2.821,0.888,5.6,1.951,8.471,2.628,5.588,1.319,7.952,5.024,9.148,10.472,2.084,9.5,4.708,18.874,7.228,28.268,0.938,3.5,1.248,8.284,3.607,9.971,2.459,1.759,7.055.334,10.695,0.6,2.316,0.167,3.2-.966,3.985-2.852,5.145-12.387,10.373-24.738,15.549-37.111,1.743-4.166,3.414-8.361,5.281-12.945C704.755,342.768,701.212,342.544,697.723,342.885Zm57.067,22.251a73.271,73.271,0,0,1-8.044-4.84c-2.608-1.979-2.385-5.077.6-6.311a20.714,20.714,0,0,1,8.3-1.383c2.893,0.08,5.762,1.078,8.923,1.733,0.772-3.539,1.486-6.812,2.236-10.252-9.768-3.089-18.842-3.393-27.664,1.519s-12.395,18.823-.252,25.52a78.26,78.26,0,0,1,9.353,5.707c3,2.256,2.565,6.17-.878,7.605a16.332,16.332,0,0,1-7.559,1.294c-4.055-.394-8.033-1.589-12.087-2.455a58,58,0,0,0-1.741,8.032,4,4,0,0,0,2.038,3.231c7.624,2.162,15.3,2.933,23.1.456,7.527-2.392,12.425-7.622,13.187-14.946C765.064,372.584,760.549,368.436,754.79,365.136Zm-36.434-22.411c-2.141-.108-2.927.75-3.349,2.8-1.566,7.6-3.363,15.143-4.979,22.729-1.911,8.974-3.725,17.97-5.63,27.2h13.233c3.69-17.3,7.382-34.607,11.237-52.678C724.845,342.768,721.594,342.889,718.356,342.725Z" transform="translate(-645 -341.812)"/>
</svg>
